<svg width="35" height="35" viewBox="0 0 35 35" fill="none" xmlns="http://www.w3.org/2000/svg">
<path d="M11.1716 28.5575C17.097 32.0758 24.7527 30.1245 28.271 24.1991C31.7894 18.2737 29.838 10.618 23.9126 7.09964C17.9872 3.5813 10.3315 5.53263 6.81317 11.4581C3.29484 17.3835 5.24617 25.0392 11.1716 28.5575Z" fill="#001D5B"/>
<path d="M7.0294 24.2344C10.8559 29.9656 18.604 31.5097 24.3353 27.6832C30.0665 23.8567 31.6106 16.1086 27.7841 10.3773C23.9575 4.64609 16.2094 3.10201 10.4782 6.92853C4.74696 10.755 3.20288 18.5031 7.0294 24.2344Z" fill="#001D5B"/>
<path d="M7.0294 24.2344C10.8559 29.9656 18.604 31.5097 24.3353 27.6832C30.0665 23.8567 31.6106 16.1086 27.7841 10.3773C23.9575 4.64609 16.2094 3.10201 10.4782 6.92853C4.74696 10.755 3.20288 18.5031 7.0294 24.2344Z" fill="url(#paint0_linear_1_1384)"/>
<path d="M11.9436 25.7505C16.6087 28.7685 22.8372 27.4333 25.8552 22.7682C28.8732 18.1032 27.5381 11.8747 22.873 8.85669C18.2079 5.83864 11.9794 7.17383 8.9614 11.8389C5.94335 16.504 7.27855 22.7324 11.9436 25.7505Z" fill="url(#paint1_linear_1_1384)"/>
<path d="M27.1563 14.8189C27.1378 14.7468 27.1176 14.6775 27.0992 14.6055C28.3305 19.9196 25.096 25.2702 19.7821 26.6239C14.4682 27.9777 9.06734 24.8281 7.60624 19.573C7.62191 19.6434 7.6404 19.7155 7.65889 19.7875C9.03112 25.1735 14.5059 28.4241 19.8919 27.0519C25.2779 25.6797 28.5285 20.2049 27.1563 14.8189Z" fill="#001D5B"/>
<path d="M15.0909 8.20783C20.3642 6.8645 25.7292 9.95845 27.2334 15.1473C27.2101 15.038 27.1841 14.9271 27.1563 14.819C25.7841 9.43299 20.3093 6.18236 14.9233 7.55459C9.53732 8.92681 6.28669 14.4016 7.65891 19.7876C7.68665 19.8957 7.71722 20.0055 7.74947 20.1125C6.58774 14.8358 9.81754 9.55116 15.0909 8.20783Z" fill="url(#paint2_linear_1_1384)"/>
<path d="M23.5515 22.3637H21.7793C21.7793 21.6784 21.3501 21.0194 20.5697 20.511C19.7192 19.9564 18.5756 19.65 17.3488 19.65C16.1221 19.65 14.9785 19.9564 14.128 20.511C13.3476 21.0194 12.9171 21.6771 12.9171 22.3637H11.1449C11.1449 21.7669 11.3232 21.1898 11.6731 20.6484C12.0006 20.1439 12.4641 19.6949 13.0505 19.312C14.2086 18.5566 15.7351 18.1406 17.3488 18.1406C18.9626 18.1406 20.4891 18.5566 21.6472 19.312C22.2336 19.6949 22.6958 20.1439 23.0233 20.6484C23.3745 21.1898 23.5515 21.7669 23.5515 22.3637Z" fill="white"/>
<path d="M13.3159 20.4331C13.0518 21.0432 12.9184 21.6929 12.9184 22.3638H11.1449C11.1449 22.3413 11.1462 22.3189 11.1462 22.2964C11.1594 21.7233 11.3364 21.1687 11.6731 20.6484C12.0006 20.1439 12.4641 19.6949 13.0505 19.312C13.576 18.9686 14.1795 18.6953 14.8319 18.4998C14.6747 18.62 14.5229 18.7494 14.3816 18.8881C13.9273 19.3318 13.5694 19.8507 13.3159 20.4331ZM23.5515 22.2964C23.5383 21.7233 23.3613 21.1687 23.0233 20.6484C22.6971 20.1439 22.2336 19.6949 21.6472 19.312C21.1217 18.9686 20.5182 18.6953 19.8658 18.4998C20.023 18.62 20.1748 18.7494 20.3161 18.8881C20.7704 19.3318 21.1296 19.8507 21.3805 20.4331C21.6459 21.0432 21.7793 21.6929 21.7793 22.3638H23.5515C23.5515 22.3413 23.5515 22.3189 23.5515 22.2964Z" fill="white"/>
<path d="M23.3054 22.1374H21.6035C21.6035 20.8312 21.4754 19.5643 21.2205 18.3748C20.9796 17.241 20.6346 16.2278 20.1984 15.3629C19.7875 14.5488 19.2993 13.8919 18.787 13.462C18.3152 13.0676 17.832 12.8672 17.3489 12.8672C16.867 12.8672 16.3825 13.0676 15.9108 13.462C15.3985 13.8919 14.9102 14.5488 14.4993 15.3629C14.0631 16.2278 13.7194 17.241 13.4772 18.3748C13.2223 19.5656 13.0942 20.8312 13.0942 22.1374H11.3911C11.3911 19.3081 11.9542 16.6336 12.9776 14.6096C13.4975 13.5774 14.1151 12.7594 14.8113 12.1761C15.1879 11.8603 15.5874 11.6155 15.997 11.4494C16.4371 11.2719 16.8911 11.1818 17.3489 11.1818C17.8067 11.1818 18.2607 11.2719 18.7007 11.4494C19.1103 11.6155 19.5098 11.8603 19.8864 12.1761C20.5827 12.7594 21.2002 13.5774 21.7202 14.6096C22.7423 16.6336 23.3054 19.3081 23.3054 22.1374Z" fill="white"/>
<defs>
<linearGradient id="paint0_linear_1_1384" x1="7.27189" y1="24.4675" x2="27.498" y2="9.99679" gradientUnits="userSpaceOnUse">
<stop stop-color="#0090FF"/>
<stop offset="1" stop-color="#CAE8FF"/>
</linearGradient>
<linearGradient id="paint1_linear_1_1384" x1="22.873" y1="8.85669" x2="11.9436" y2="25.7505" gradientUnits="userSpaceOnUse">
<stop stop-color="#89C2FF"/>
<stop offset="1" stop-color="#006BDD"/>
</linearGradient>
<linearGradient id="paint2_linear_1_1384" x1="21.3678" y1="7.95599" x2="12.5093" y2="22.9287" gradientUnits="userSpaceOnUse">
<stop stop-color="#003DC1"/>
<stop offset="1" stop-color="#001D5B"/>
</linearGradient>
</defs>
</svg>
